# xmcd
#
# Track frame offsets:
#	183
#	18458
#	46350
#
# Disc length: 915 seconds
#
# Revision: 2
# Processed by: cddbd v1.5.2PL0 Copyright (c) Steve Scherf et al.
# Submitted via: audiograbber 1.83.01
#
DISCID=1d039103
DTITLE=Stars on 45 - Stars on '89 Remix
DYEAR=1989
DGENRE=Pop
TTITLE0=Stars on '89 Remix (Radio version)
TTITLE1=Stars on '89 Remix (Extended version)
TTITLE2=Stars on the house (Super club mix)
EXTD=
EXTT0=
EXTT1=
EXTT2=
PLAYORDER=
